<?xml version="1.0" encoding="utf-8"?>
<!-- Generator: Adobe Illustrator 28.0.0, SVG Export Plug-In . SVG Version: 6.00 Build 0)  -->
<svg version="1.1" id="レイヤー_1" xmlns="http://www.w3.org/2000/svg" xmlns:xlink="http://www.w3.org/1999/xlink" x="0px"
	 y="0px" viewBox="0 0 256 256" style="enable-background:new 0 0 256 256;" xml:space="preserve">
<style type="text/css">
	.st0{fill:#7EC7D8;}
	.st1{fill:#FFFCF9;}
</style>
<rect class="st0" width="256" height="256"/>
<g>
	<path class="st1" d="M117.73,77.56h-13.69c-0.27,0-0.44,0.18-0.44,0.35c-1.24,12.54-5.48,23.23-14.31,32.06
		c-1.41,1.59-3.62-0.53-2.38-2.21l0.09-0.09c7.95-7.95,11.04-19.78,11.48-29.76c0-0.18-0.18-0.35-0.35-0.35H76.31
		c-0.18,0-0.44,0.18-0.44,0.35c-3.18,7.51-7.15,15.46-14.13,19.96c-1.85,1.15-4.24,2.3-7.15,2.03c-3.09-0.35-5.65-2.38-6.54-5.12
		c-0.88-2.83-0.35-5.39,0.44-7.6c2.47-6.71,9.01-10.69,15.54-12.28c2.12-0.53,4.33-0.79,6.89-0.88c0.18,0,0.35-0.18,0.44-0.35
		c1.77-6.36,2.74-12.28,2.74-18.72c0-1.5-1.15-2.65-2.65-2.65H56c-2.38,0-2.21-3.62,0.09-3.62h16.25c4.77,0,7.42,3,7.42,7.95
		c0,5.39-0.97,11.13-2.65,17.13c-0.09,0.18,0.09,0.35,0.26,0.35l20.84-0.09c0.18,0,0.35-0.09,0.44-0.35c0-3.62,0.09-6.62,0-9.89
		c0,0,0-5.12-0.09-8.74c-0.09-1.68,1.32-3.18,3-3.18c1.5,0,2.91,1.15,3.36,2.47c3.53,9.72,11.83,17.93,13.6,19.87
		c0.53,0.35,0.88,1.06,0.88,1.59C119.5,76.77,118.7,77.56,117.73,77.56z M69.68,77.56c-1.59,0.18-3.18,0.44-4.77,0.88
		c-5.56,1.5-10.6,4.86-12.45,10.16c-1.85,5.74,1.94,8.48,6.54,5.12c5.48-4.06,8.66-10.16,10.95-15.81
		C70.04,77.74,69.95,77.56,69.68,77.56z M113.58,74.21c0.35,0,0.71-0.53,0.27-0.97c-2.74-2.91-5.74-6.45-8.57-11.22
		c-0.62-1.06-1.24-0.71-1.24,0.18c0,4.42,0.18,7.77-0.09,11.66c0,0.18,0.09,0.35,0.35,0.35H113.58z"/>
	<path class="st1" d="M202.86,104.77c-5.3-3.36-9.27-5.83-13.87-7.33c-0.26-0.18-0.35,0.18-0.35,0.44
		c-0.18,2.65-1.06,5.65-3.36,7.42c-1.94,1.5-4.42,2.12-6.8,2.47c-4.42,0.71-8.92,0.44-13.07-1.77c-2.21-1.15-3.97-3.27-4.15-5.92
		c-0.18-2.65,1.32-4.95,3.36-6.36c3.62-2.38,7.95-2.38,11.48-2.21c2.47,0.18,4.77,0.44,7.24,0.79c0.09,0,0.09-0.09,0.09-0.18V65.91
		c0-0.18-0.09-0.35-0.35-0.35h-2.91c-2.3,0-4.77-0.18-6.8,0.09c-6.71,0.79-12.81,5.3-16.43,10.69c-2.47,3.62-4.06,7.51-5.12,11.22
		c-1.15,3.8-2.38,7.6-2.38,11.13c-0.26,2.38-3.36,3-4.42,0.79c-2.91-7.15-4.68-14.4-4.86-22.17c-0.18-7.33,0.88-14.48,1.85-21.81
		c0.44-3.18,5.12-2.91,5.12,0.26c0,1.68-0.62,5.39-0.88,7.07c-0.62,4.15-1.06,8.3-1.15,12.54c-0.18,5.03,0.26,9.71,1.5,14.75
		c0.18,0.71,1.5,0.79,1.59,0c1.32-5.74,3-10.95,6.01-15.54c4.06-6.18,10.86-11.3,18.63-12.36c2.74-0.44,5.03-0.26,7.33-0.26h2.91
		c0.26,0,0.35-0.18,0.35-0.35l0.09-16.6c0-3.97,4.95-3.8,5.21-0.18v16.78c0,0.18,0.18,0.35,0.35,0.35h3.53
		c3.36,0,5.83-1.24,7.15-2.38c0.71-0.62,1.06-1.32,1.68-1.94c0.97-2.03,4.33-0.53,3.27,1.59v0.09c-0.71,1.24-1.59,2.21-2.65,3.18
		c-1.94,1.59-5.3,3-9.36,3.09h-3.62c-0.18,0-0.35,0.18-0.35,0.35v26.76c0,0.27,0.09,0.44,0.35,0.44c5.92,1.32,11.66,3.62,16.6,6.71
		C208.96,101.67,206.13,106.8,202.86,104.77z M183.08,95.76c-2.47-0.62-4.77-0.97-7.24-1.15c-3.27-0.35-6.8-0.09-9.54,1.77
		c-1.15,0.79-1.94,2.21-1.85,3.53c0.18,1.41,1.41,2.56,2.65,3.09c3,1.32,7.07,1.59,10.6,0.79c1.59-0.26,3.18-1.06,4.15-2.21
		c0.79-0.97,1.06-2.12,1.59-5.39C183.43,95.93,183.35,95.76,183.08,95.76z"/>
	<path class="st1" d="M70.57,163.94c-0.27,0-0.44,0.18-0.44,0.35c-1.68,13.42-7.07,23.14-16.07,33.65
		c-2.38,2.56-6.45-1.15-3.97-3.62c8.3-8.74,13.51-18.9,14.84-30.03c0.09-0.18-0.09-0.35-0.27-0.35H52.29c-2.38,0-2.21-3.62,0-3.62
		h12.63c0.27,0,0.44-0.18,0.44-0.35c0.27-5.03,0.27-8.57,0.27-11.13c-0.35-3.8,5.65-3.8,5.48-0.09c0,2.65-0.18,6.54-0.53,11.22
		c0,0.18,0.18,0.35,0.35,0.35h3.71c7.15,0,9.19-4.06,9.27-4.24c1.24-2.38,5.03-0.62,3.36,1.59c-0.18,0.26-3.09,6.27-12.63,6.27
		H70.57z M116.76,171.71c-0.35,0.79-0.97,1.24-1.68,1.5c-0.35,0.09-0.53,0.09-0.79,0.09h-11.13c-6.36,0-7.95,3.18-7.95,8.57v16.43
		c0,0.18,0.18,0.35,0.35,0.44c5.39,1.59,9.8,3.97,14.22,6.45c0,0,0.71,0.53,1.15,0.79c3,1.86-0.27,6.62-2.83,4.68
		c-0.71-0.44-1.41-1.06-1.41-1.06c-3.62-3.18-7.33-5.21-11.22-6.89c-0.09-0.09-0.27,0-0.27,0.18c-0.09,0.26,0,0.53-0.09,0.79
		c-0.09,1.15-0.18,2.21-0.79,3.62c-0.44,1.33-1.32,2.38-2.21,3.27c-1.94,1.77-4.24,2.47-6.36,2.92c-2.12,0.35-4.5,0.35-6.54,0.09
		c-2.12-0.35-4.15-0.88-6.18-1.85c-2.38-1.33-4.24-3.27-4.42-5.83c-0.18-2.56,1.15-4.95,3.18-6.36c3.18-2.3,7.51-2.74,11.04-2.74
		c2.38-0.09,4.68,0.18,6.8,0.53c0.18,0,0.35-0.18,0.35-0.35v-15.1c0-9.19,4.95-11.57,13.07-11.57h3.09c0.71,0,1.06-0.88,0.44-1.33
		c-5.48-4.77-7.95-7.42-9.89-10.16c-1.06-1.68,1.24-3.62,2.56-2.03c4.33,5.3,10.25,8.66,16.07,11.57
		C116.67,168.97,117.29,170.47,116.76,171.71z M89.91,201.38c0-0.18-0.18-0.44-0.35-0.44c-2.12-0.44-4.33-0.71-6.62-0.71
		c-3.09,0.09-6.71,0.53-9.01,2.21c-0.97,0.71-1.68,1.85-1.5,3.09c0.09,0.88,0.97,1.85,2.47,2.47c2.83,1.24,6.71,1.59,9.89,0.79
		c1.94-0.44,4.33-1.32,4.86-3.44C89.82,204.74,89.91,203.77,89.91,201.38z"/>
	<path class="st1" d="M172.66,163.23c2.03,0,2.03,3.18,0,3.18h-11.92c-0.18,0-0.35,0.18-0.35,0.44c-0.53,5.92-1.32,11.75-3.09,17.58
		c-2.91,10.07-7.68,19.61-13.87,28.08c-2.12,3-6.71-0.44-4.5-3.27l0.09-0.09c6.54-8.57,10.69-16.96,13.25-25.96
		c1.5-5.48,2.21-10.86,2.56-16.34c0-0.27-0.18-0.44-0.35-0.44h-12.89c-2.21,0-2.21-3.18,0-3.18h12.98c0.27,0,0.44-0.18,0.44-0.44
		c0.09-2.65,0.09-5.3,0.09-7.95c0,0-0.09-1.77-0.09-2.74c0-3.8,5.92-3.89,5.92-0.09v2.83c0,2.65-0.18,5.3-0.26,7.95
		c0,0.27,0.09,0.44,0.35,0.44H172.66z M201.72,211.63c-1.59,0.79-4.24,0.44-5.92,0.44c-4.68,0-10.07-0.27-14.4-2.38
		c-4.86-2.38-7.24-7.33-6.45-12.63c1.15-8.57,8.13-14.31,14.4-19.17c1.59-1.24,3.8-2.83,5.03-3.71c0.71-0.53,0.71-1.68,0-2.21
		c-4.24-3.27-8.83-4.86-14.48-5.48c-1.94-0.18-1.68-3.27,0.27-3.09c6.71,0.18,14.4,1.32,19.43,6.27c2.47,2.3-0.62,4.24-2.21,5.39
		c-5.74,4.15-11.66,8.39-16.07,14.4c-3,4.06-4.33,10.6,0.18,14.31c4.15,3.44,14.31,2.74,18.9,2.65h0.62c0,0,0,0.09,0.09,0.09
		C203.39,207.04,204.01,210.39,201.72,211.63z M200.39,158.11c-0.18,2.56-2.21,3.09-3.62,1.24c-3.27-4.95-7.6-7.42-11.3-9.54
		c-0.97-0.44-0.71-1.85,0.35-1.85C187.58,147.86,200.21,151.22,200.39,158.11z M207.99,151.66c0.18,2.47-2.12,3.18-3.44,1.41
		c-3.62-4.86-7.86-7.15-11.75-8.92c-1.15-0.44-0.79-2.03,0.27-2.03C194.83,142.12,207.37,144.68,207.99,151.66z"/>
</g>
<g>
</g>
<g>
</g>
<g>
</g>
<g>
</g>
<g>
</g>
<g>
</g>
<g>
</g>
<g>
</g>
<g>
</g>
<g>
</g>
<g>
</g>
<g>
</g>
<g>
</g>
<g>
</g>
<g>
</g>
</svg>
