<svg width="869" height="418" viewBox="0 0 869 418" fill="none" xmlns="http://www.w3.org/2000/svg">
<g filter="url(#filter0_d_124_355)">
<circle cx="327.5" cy="244.5" r="165.5" fill="#50B7CF"/>
</g>
<g filter="url(#filter1_d_124_355)">
<circle cx="194.5" cy="190.5" r="190.5" fill="#3FAAC2"/>
</g>
<g filter="url(#filter2_d_124_355)">
<path d="M362.799 269.106H338.054C337.574 269.106 337.254 269.426 337.254 269.743C335.017 292.415 327.354 311.734 311.388 327.7C308.835 330.573 304.842 326.74 307.079 323.707L307.239 323.547C321.608 309.178 327.194 287.782 327.994 269.74C327.994 269.42 327.674 269.103 327.358 269.103H287.923C287.603 269.103 287.123 269.423 287.123 269.74C281.376 283.309 274.19 297.682 261.577 305.824C258.224 307.901 253.914 309.974 248.645 309.498C243.055 308.858 238.425 305.188 236.829 300.238C235.232 295.128 236.189 290.498 237.625 286.509C242.095 274.373 253.911 267.19 265.727 264.316C269.56 263.36 273.55 262.88 278.18 262.72C278.5 262.72 278.817 262.4 278.977 262.083C282.17 250.587 283.926 239.891 283.926 228.235C283.926 225.521 281.85 223.445 279.137 223.445H251.195C246.885 223.445 247.202 216.899 251.355 216.899H280.733C289.356 216.899 294.146 222.328 294.146 231.268C294.146 241.007 292.389 251.384 289.356 262.243C289.196 262.563 289.516 262.88 289.836 262.88L327.517 262.72C327.837 262.72 328.154 262.56 328.314 262.083C328.314 255.537 328.474 250.107 328.314 244.201C328.314 244.201 328.314 234.941 328.154 228.395C327.994 225.361 330.547 222.648 333.584 222.648C336.297 222.648 338.854 224.725 339.65 227.118C346.037 244.68 361.046 259.53 364.239 263.043C365.196 263.683 365.836 264.959 365.836 265.916C365.996 267.673 364.559 269.109 362.802 269.109L362.799 269.106ZM275.943 269.106C273.07 269.426 270.197 269.903 267.321 270.703C257.261 273.416 248.162 279.482 244.808 289.065C241.455 299.444 248.322 304.391 256.621 298.325C266.521 290.978 272.267 279.962 276.42 269.746C276.58 269.426 276.42 269.109 275.94 269.109L275.943 269.106ZM355.296 263.04C355.936 263.04 356.573 262.083 355.776 261.283C350.826 256.013 345.397 249.627 340.29 241.007C339.174 239.091 338.054 239.731 338.054 241.327C338.054 249.31 338.374 255.377 337.894 262.403C337.894 262.723 338.054 263.04 338.53 263.04H355.296Z" fill="#FFFCF9"/>
<path d="M516.709 318.28C507.129 312.214 499.943 307.741 491.64 305.028C491.16 304.708 491.004 305.348 491.004 305.828C490.684 310.617 489.087 316.047 484.937 319.24C481.424 321.954 476.954 323.073 472.641 323.71C464.658 324.987 456.515 324.507 449.012 320.517C445.019 318.44 441.826 314.61 441.509 309.821C441.189 305.031 443.903 300.881 447.576 298.325C454.122 294.015 461.945 294.015 468.331 294.332C472.801 294.652 476.954 295.128 481.424 295.768C481.584 295.768 481.584 295.608 481.584 295.448V248.027C481.584 247.707 481.424 247.387 480.947 247.387H475.678C471.528 247.387 467.055 247.067 463.385 247.547C451.249 248.984 440.233 257.127 433.686 266.866C429.216 273.413 426.34 280.439 424.427 287.142C422.35 294.008 420.117 300.875 420.117 307.261C419.637 311.571 414.05 312.688 412.134 308.698C406.864 295.765 403.671 282.672 403.351 268.623C403.031 255.37 404.948 242.438 406.704 229.188C407.501 223.438 415.964 223.918 415.964 229.668C415.964 232.701 414.847 239.408 414.367 242.441C413.251 249.944 412.451 257.45 412.291 265.113C411.971 274.213 412.771 282.675 415.004 291.775C415.324 293.052 417.717 293.212 417.877 291.775C420.27 281.396 423.307 271.976 428.733 263.673C436.076 252.497 448.372 243.237 462.422 241.321C467.371 240.524 471.521 240.841 475.674 240.841H480.944C481.424 240.841 481.581 240.521 481.581 240.201L481.741 210.186C481.741 203 490.68 203.32 491.16 209.866V240.201C491.16 240.521 491.48 240.841 491.797 240.841H498.183C504.25 240.841 508.723 238.604 511.116 236.531C512.393 235.415 513.033 234.138 514.149 233.018C515.906 229.345 521.972 232.058 520.056 235.891V236.051C518.779 238.288 517.182 240.044 515.266 241.801C511.753 244.674 505.686 247.231 498.34 247.387H491.794C491.474 247.387 491.157 247.707 491.157 248.027V296.405C491.157 296.885 491.317 297.205 491.794 297.205C502.49 299.598 512.869 303.751 521.809 309.338C527.715 312.691 522.606 321.95 516.699 318.277L516.709 318.28ZM480.944 301.995C476.474 300.878 472.321 300.238 467.851 299.918C461.945 299.281 455.559 299.758 450.609 303.111C448.532 304.548 447.096 307.104 447.256 309.498C447.576 312.051 449.809 314.127 452.045 315.087C457.475 317.48 464.818 317.96 471.205 316.524C474.078 316.044 476.954 314.607 478.711 312.534C480.147 310.777 480.627 308.701 481.584 302.794C481.584 302.314 481.424 301.998 480.947 301.998L480.944 301.995Z" fill="#FFFCF9"/>
<path d="M600.558 238.441C600.078 238.441 599.761 238.761 599.761 239.081C596.728 263.35 586.988 280.912 570.702 299.911C566.392 304.541 559.046 297.835 563.519 293.365C578.528 277.556 587.948 259.197 590.341 239.081C590.501 238.761 590.181 238.441 589.861 238.441H567.509C563.199 238.441 563.516 231.895 567.509 231.895H590.341C590.821 231.895 591.138 231.575 591.138 231.255C591.618 222.155 591.618 215.769 591.618 211.139C590.981 204.273 601.837 204.273 601.517 210.979C601.517 215.769 601.197 222.792 600.561 231.255C600.561 231.575 600.881 231.895 601.201 231.895H607.907C620.84 231.895 624.513 224.552 624.673 224.232C626.909 219.922 633.772 223.115 630.739 227.105C630.419 227.585 625.153 238.441 607.907 238.441H600.564H600.558ZM684.06 252.494C683.42 253.93 682.304 254.73 681.027 255.207C680.39 255.367 680.07 255.367 679.59 255.367H659.475C647.979 255.367 645.105 261.117 645.105 270.856V300.551C645.105 300.871 645.425 301.191 645.745 301.348C655.485 304.221 663.468 308.534 671.451 313.004C671.451 313.004 672.727 313.964 673.527 314.441C678.957 317.794 673.047 326.417 668.417 322.904C667.141 322.104 665.864 320.987 665.864 320.987C659.318 315.241 652.612 311.567 645.588 308.534C645.428 308.374 645.108 308.534 645.108 308.854C644.949 309.334 645.108 309.814 644.949 310.291C644.789 312.367 644.629 314.284 643.512 316.837C642.715 319.234 641.119 321.147 639.522 322.744C636.009 325.937 631.859 327.213 628.026 328.013C624.196 328.65 619.883 328.65 616.213 328.173C612.38 327.533 608.71 326.577 605.037 324.82C600.727 322.424 597.374 318.914 597.054 314.281C596.734 309.651 599.131 305.338 602.8 302.785C608.55 298.635 616.373 297.835 622.759 297.835C627.069 297.675 631.222 298.155 635.052 298.795C635.372 298.795 635.689 298.475 635.689 298.155V270.853C635.689 254.247 644.632 249.937 659.318 249.937H664.907C666.184 249.937 666.824 248.341 665.704 247.541C655.805 238.918 651.335 234.128 647.822 229.182C645.905 226.148 650.058 222.635 652.452 225.508C660.274 235.088 670.974 241.154 681.51 246.424C683.903 247.541 685.023 250.254 684.063 252.49L684.06 252.494ZM635.523 306.141C635.523 305.821 635.203 305.341 634.883 305.341C631.05 304.544 627.06 304.064 622.907 304.064C617.32 304.224 610.774 305.024 606.621 308.058C604.864 309.334 603.588 311.411 603.908 313.644C604.067 315.241 605.664 316.997 608.377 318.114C613.487 320.35 620.51 320.987 626.26 319.55C629.773 318.754 634.083 317.157 635.039 313.324C635.359 312.207 635.519 310.451 635.519 306.141H635.523Z" fill="#FFFCF9"/>
<path d="M785.119 237.165C788.792 237.165 788.792 242.911 785.119 242.911H763.563C763.244 242.911 762.927 243.231 762.927 243.711C761.97 254.407 760.533 264.946 757.337 275.483C752.067 293.685 743.448 310.928 732.272 326.254C728.439 331.683 720.136 325.457 724.129 320.347L724.289 320.187C736.105 304.701 743.608 289.532 748.238 273.249C750.951 263.35 752.231 253.61 752.867 243.711C752.867 243.231 752.547 242.911 752.227 242.911H728.915C724.925 242.911 724.925 237.165 728.915 237.165H752.384C752.864 237.165 753.184 236.845 753.184 236.365C753.344 231.575 753.344 226.785 753.344 221.995C753.344 221.995 753.184 218.802 753.184 217.046C753.184 210.179 763.88 210.019 763.88 216.886V221.995C763.88 226.785 763.56 231.575 763.4 236.365C763.4 236.845 763.56 237.165 764.037 237.165H785.113H785.119ZM837.647 324.657C834.773 326.094 829.984 325.457 826.95 325.457C818.487 325.457 808.748 324.977 800.925 321.147C792.145 316.837 787.832 307.894 789.269 298.315C791.345 282.829 803.958 272.45 815.294 263.67C818.167 261.433 822.161 258.56 824.394 256.964C825.671 256.004 825.671 253.93 824.394 252.97C816.731 247.064 808.428 244.191 798.209 243.071C794.695 242.751 795.175 237.165 798.688 237.485C810.821 237.801 824.714 239.878 833.813 248.821C838.283 252.97 832.697 256.484 829.824 258.56C819.444 266.066 808.748 273.729 800.765 284.586C795.335 291.929 792.942 303.745 801.085 310.448C808.588 316.674 826.95 315.397 835.253 315.241H836.37C836.37 315.241 836.37 315.401 836.53 315.401C840.68 316.361 841.8 322.424 837.647 324.66V324.657ZM835.253 227.902C834.933 232.532 831.26 233.491 828.707 230.138C822.8 221.199 814.978 216.726 808.271 212.896C806.515 212.099 806.995 209.543 808.911 209.543C812.104 209.383 834.936 215.449 835.253 227.902ZM848.983 216.246C849.303 220.716 845.153 221.992 842.756 218.799C836.21 210.016 828.547 205.866 821.521 202.673C819.444 201.876 820.084 199 822.001 199C825.194 199 847.866 203.63 848.983 216.243V216.246Z" fill="#FFFCF9"/>
</g>
<defs>
<filter id="filter0_d_124_355" x="158" y="79" width="339" height="339" filterUnits="userSpaceOnUse" color-interpolation-filters="sRGB">
<feFlood flood-opacity="0" result="BackgroundImageFix"/>
<feColorMatrix in="SourceAlpha" type="matrix" values="0 0 0 0 0 0 0 0 0 0 0 0 0 0 0 0 0 0 127 0" result="hardAlpha"/>
<feOffset dy="4"/>
<feGaussianBlur stdDeviation="2"/>
<feComposite in2="hardAlpha" operator="out"/>
<feColorMatrix type="matrix" values="0 0 0 0 0 0 0 0 0 0 0 0 0 0 0 0 0 0 0.25 0"/>
<feBlend mode="normal" in2="BackgroundImageFix" result="effect1_dropShadow_124_355"/>
<feBlend mode="normal" in="SourceGraphic" in2="effect1_dropShadow_124_355" result="shape"/>
</filter>
<filter id="filter1_d_124_355" x="0" y="0" width="389" height="389" filterUnits="userSpaceOnUse" color-interpolation-filters="sRGB">
<feFlood flood-opacity="0" result="BackgroundImageFix"/>
<feColorMatrix in="SourceAlpha" type="matrix" values="0 0 0 0 0 0 0 0 0 0 0 0 0 0 0 0 0 0 127 0" result="hardAlpha"/>
<feOffset dy="4"/>
<feGaussianBlur stdDeviation="2"/>
<feComposite in2="hardAlpha" operator="out"/>
<feColorMatrix type="matrix" values="0 0 0 0 0 0 0 0 0 0 0 0 0 0 0 0 0 0 0.25 0"/>
<feBlend mode="normal" in2="BackgroundImageFix" result="effect1_dropShadow_124_355"/>
<feBlend mode="normal" in="SourceGraphic" in2="effect1_dropShadow_124_355" result="shape"/>
</filter>
<filter id="filter2_d_124_355" x="216" y="183" width="653" height="169.715" filterUnits="userSpaceOnUse" color-interpolation-filters="sRGB">
<feFlood flood-opacity="0" result="BackgroundImageFix"/>
<feColorMatrix in="SourceAlpha" type="matrix" values="0 0 0 0 0 0 0 0 0 0 0 0 0 0 0 0 0 0 127 0" result="hardAlpha"/>
<feOffset dy="4"/>
<feGaussianBlur stdDeviation="10"/>
<feComposite in2="hardAlpha" operator="out"/>
<feColorMatrix type="matrix" values="0 0 0 0 0 0 0 0 0 0 0 0 0 0 0 0 0 0 0.25 0"/>
<feBlend mode="normal" in2="BackgroundImageFix" result="effect1_dropShadow_124_355"/>
<feBlend mode="normal" in="SourceGraphic" in2="effect1_dropShadow_124_355" result="shape"/>
</filter>
</defs>
</svg>
